G04*
G04 #@! TF.GenerationSoftware,Altium Limited,Altium Designer,24.0.1 (36)*
G04*
G04 Layer_Color=37055*
%FSLAX44Y44*%
%MOMM*%
G71*
G04*
G04 #@! TF.SameCoordinates,4C30625D-141C-4DED-AF2C-57B9B0358E9A*
G04*
G04*
G04 #@! TF.FilePolarity,Positive*
G04*
G01*
G75*
%ADD11C,0.2032*%
D11*
X864760Y229600D02*
G03*
X895240Y229600I15240J0D01*
G01*
Y280400D02*
G03*
X864760Y280400I-15240J0D01*
G01*
X355240Y355400D02*
G03*
X324760Y355400I-15240J0D01*
G01*
Y304600D02*
G03*
X355240Y304600I15240J0D01*
G01*
X525400Y14760D02*
G03*
X525400Y45240I0J15240D01*
G01*
X474600D02*
G03*
X474600Y14760I0J-15240D01*
G01*
X675240Y350400D02*
G03*
X644760Y350400I-15240J0D01*
G01*
Y299600D02*
G03*
X675240Y299600I15240J0D01*
G01*
X895240Y145400D02*
G03*
X864760Y145400I-15240J0D01*
G01*
Y94600D02*
G03*
X895240Y94600I15240J0D01*
G01*
X864760Y229600D02*
Y280400D01*
X895240Y229600D02*
Y280400D01*
X355240Y304600D02*
Y355400D01*
X324760Y304600D02*
Y355400D01*
X474600Y14760D02*
X525400D01*
X474600Y45240D02*
X525400D01*
X675240Y299600D02*
Y350400D01*
X644760Y299600D02*
Y350400D01*
X895240Y94600D02*
Y145400D01*
X864760Y94600D02*
Y145400D01*
M02*
