G04*
G04 #@! TF.GenerationSoftware,Altium Limited,Altium Designer,24.0.1 (36)*
G04*
G04 Layer_Color=8388736*
%FSLAX44Y44*%
%MOMM*%
G71*
G04*
G04 #@! TF.SameCoordinates,0BEA1027-E7CD-41A8-BA1F-003F9607D513*
G04*
G04*
G04 #@! TF.FilePolarity,Negative*
G04*
G01*
G75*
%ADD13C,0.1000*%
G04:AMPARAMS|DCode=17|XSize=1.1mm|YSize=3.1mm|CornerRadius=0.3mm|HoleSize=0mm|Usage=FLASHONLY|Rotation=0.000|XOffset=0mm|YOffset=0mm|HoleType=Round|Shape=RoundedRectangle|*
%AMROUNDEDRECTD17*
21,1,1.1000,2.5000,0,0,0.0*
21,1,0.5000,3.1000,0,0,0.0*
1,1,0.6000,0.2500,-1.2500*
1,1,0.6000,-0.2500,-1.2500*
1,1,0.6000,-0.2500,1.2500*
1,1,0.6000,0.2500,1.2500*
%
%ADD17ROUNDEDRECTD17*%
G04:AMPARAMS|DCode=18|XSize=1.1mm|YSize=3.1mm|CornerRadius=0.3mm|HoleSize=0mm|Usage=FLASHONLY|Rotation=90.000|XOffset=0mm|YOffset=0mm|HoleType=Round|Shape=RoundedRectangle|*
%AMROUNDEDRECTD18*
21,1,1.1000,2.5000,0,0,90.0*
21,1,0.5000,3.1000,0,0,90.0*
1,1,0.6000,1.2500,0.2500*
1,1,0.6000,1.2500,-0.2500*
1,1,0.6000,-1.2500,-0.2500*
1,1,0.6000,-1.2500,0.2500*
%
%ADD18ROUNDEDRECTD18*%
G04:AMPARAMS|DCode=19|XSize=1.14mm|YSize=1.12mm|CornerRadius=0.305mm|HoleSize=0mm|Usage=FLASHONLY|Rotation=270.000|XOffset=0mm|YOffset=0mm|HoleType=Round|Shape=RoundedRectangle|*
%AMROUNDEDRECTD19*
21,1,1.1400,0.5100,0,0,270.0*
21,1,0.5300,1.1200,0,0,270.0*
1,1,0.6100,-0.2550,-0.2650*
1,1,0.6100,-0.2550,0.2650*
1,1,0.6100,0.2550,0.2650*
1,1,0.6100,0.2550,-0.2650*
%
%ADD19ROUNDEDRECTD19*%
G04:AMPARAMS|DCode=20|XSize=1.1mm|YSize=1.2mm|CornerRadius=0.3mm|HoleSize=0mm|Usage=FLASHONLY|Rotation=270.000|XOffset=0mm|YOffset=0mm|HoleType=Round|Shape=RoundedRectangle|*
%AMROUNDEDRECTD20*
21,1,1.1000,0.6000,0,0,270.0*
21,1,0.5000,1.2000,0,0,270.0*
1,1,0.6000,-0.3000,-0.2500*
1,1,0.6000,-0.3000,0.2500*
1,1,0.6000,0.3000,0.2500*
1,1,0.6000,0.3000,-0.2500*
%
%ADD20ROUNDEDRECTD20*%
G04:AMPARAMS|DCode=21|XSize=2.8mm|YSize=1.6mm|CornerRadius=0.425mm|HoleSize=0mm|Usage=FLASHONLY|Rotation=0.000|XOffset=0mm|YOffset=0mm|HoleType=Round|Shape=RoundedRectangle|*
%AMROUNDEDRECTD21*
21,1,2.8000,0.7500,0,0,0.0*
21,1,1.9500,1.6000,0,0,0.0*
1,1,0.8500,0.9750,-0.3750*
1,1,0.8500,-0.9750,-0.3750*
1,1,0.8500,-0.9750,0.3750*
1,1,0.8500,0.9750,0.3750*
%
%ADD21ROUNDEDRECTD21*%
G04:AMPARAMS|DCode=22|XSize=1.1mm|YSize=1.5mm|CornerRadius=0.3mm|HoleSize=0mm|Usage=FLASHONLY|Rotation=90.000|XOffset=0mm|YOffset=0mm|HoleType=Round|Shape=RoundedRectangle|*
%AMROUNDEDRECTD22*
21,1,1.1000,0.9000,0,0,90.0*
21,1,0.5000,1.5000,0,0,90.0*
1,1,0.6000,0.4500,0.2500*
1,1,0.6000,0.4500,-0.2500*
1,1,0.6000,-0.4500,-0.2500*
1,1,0.6000,-0.4500,0.2500*
%
%ADD22ROUNDEDRECTD22*%
G04:AMPARAMS|DCode=23|XSize=2.8mm|YSize=1.6mm|CornerRadius=0.425mm|HoleSize=0mm|Usage=FLASHONLY|Rotation=90.000|XOffset=0mm|YOffset=0mm|HoleType=Round|Shape=RoundedRectangle|*
%AMROUNDEDRECTD23*
21,1,2.8000,0.7500,0,0,90.0*
21,1,1.9500,1.6000,0,0,90.0*
1,1,0.8500,0.3750,0.9750*
1,1,0.8500,0.3750,-0.9750*
1,1,0.8500,-0.3750,-0.9750*
1,1,0.8500,-0.3750,0.9750*
%
%ADD23ROUNDEDRECTD23*%
G04:AMPARAMS|DCode=24|XSize=1.6mm|YSize=1.4mm|CornerRadius=0.375mm|HoleSize=0mm|Usage=FLASHONLY|Rotation=180.000|XOffset=0mm|YOffset=0mm|HoleType=Round|Shape=RoundedRectangle|*
%AMROUNDEDRECTD24*
21,1,1.6000,0.6500,0,0,180.0*
21,1,0.8500,1.4000,0,0,180.0*
1,1,0.7500,-0.4250,0.3250*
1,1,0.7500,0.4250,0.3250*
1,1,0.7500,0.4250,-0.3250*
1,1,0.7500,-0.4250,-0.3250*
%
%ADD24ROUNDEDRECTD24*%
G04:AMPARAMS|DCode=25|XSize=2.8mm|YSize=1.7mm|CornerRadius=0.45mm|HoleSize=0mm|Usage=FLASHONLY|Rotation=0.000|XOffset=0mm|YOffset=0mm|HoleType=Round|Shape=RoundedRectangle|*
%AMROUNDEDRECTD25*
21,1,2.8000,0.8000,0,0,0.0*
21,1,1.9000,1.7000,0,0,0.0*
1,1,0.9000,0.9500,-0.4000*
1,1,0.9000,-0.9500,-0.4000*
1,1,0.9000,-0.9500,0.4000*
1,1,0.9000,0.9500,0.4000*
%
%ADD25ROUNDEDRECTD25*%
G04:AMPARAMS|DCode=26|XSize=1.7mm|YSize=1.9mm|CornerRadius=0.45mm|HoleSize=0mm|Usage=FLASHONLY|Rotation=180.000|XOffset=0mm|YOffset=0mm|HoleType=Round|Shape=RoundedRectangle|*
%AMROUNDEDRECTD26*
21,1,1.7000,1.0000,0,0,180.0*
21,1,0.8000,1.9000,0,0,180.0*
1,1,0.9000,-0.4000,0.5000*
1,1,0.9000,0.4000,0.5000*
1,1,0.9000,0.4000,-0.5000*
1,1,0.9000,-0.4000,-0.5000*
%
%ADD26ROUNDEDRECTD26*%
G04:AMPARAMS|DCode=27|XSize=1.6mm|YSize=1.4mm|CornerRadius=0.375mm|HoleSize=0mm|Usage=FLASHONLY|Rotation=90.000|XOffset=0mm|YOffset=0mm|HoleType=Round|Shape=RoundedRectangle|*
%AMROUNDEDRECTD27*
21,1,1.6000,0.6500,0,0,90.0*
21,1,0.8500,1.4000,0,0,90.0*
1,1,0.7500,0.3250,0.4250*
1,1,0.7500,0.3250,-0.4250*
1,1,0.7500,-0.3250,-0.4250*
1,1,0.7500,-0.3250,0.4250*
%
%ADD27ROUNDEDRECTD27*%
G04:AMPARAMS|DCode=28|XSize=1.02mm|YSize=1.48mm|CornerRadius=0.165mm|HoleSize=0mm|Usage=FLASHONLY|Rotation=0.000|XOffset=0mm|YOffset=0mm|HoleType=Round|Shape=RoundedRectangle|*
%AMROUNDEDRECTD28*
21,1,1.0200,1.1500,0,0,0.0*
21,1,0.6900,1.4800,0,0,0.0*
1,1,0.3300,0.3450,-0.5750*
1,1,0.3300,-0.3450,-0.5750*
1,1,0.3300,-0.3450,0.5750*
1,1,0.3300,0.3450,0.5750*
%
%ADD28ROUNDEDRECTD28*%
G04:AMPARAMS|DCode=29|XSize=1.14mm|YSize=1.12mm|CornerRadius=0.305mm|HoleSize=0mm|Usage=FLASHONLY|Rotation=0.000|XOffset=0mm|YOffset=0mm|HoleType=Round|Shape=RoundedRectangle|*
%AMROUNDEDRECTD29*
21,1,1.1400,0.5100,0,0,0.0*
21,1,0.5300,1.1200,0,0,0.0*
1,1,0.6100,0.2650,-0.2550*
1,1,0.6100,-0.2650,-0.2550*
1,1,0.6100,-0.2650,0.2550*
1,1,0.6100,0.2650,0.2550*
%
%ADD29ROUNDEDRECTD29*%
G04:AMPARAMS|DCode=30|XSize=1.1mm|YSize=1.2mm|CornerRadius=0.3mm|HoleSize=0mm|Usage=FLASHONLY|Rotation=180.000|XOffset=0mm|YOffset=0mm|HoleType=Round|Shape=RoundedRectangle|*
%AMROUNDEDRECTD30*
21,1,1.1000,0.6000,0,0,180.0*
21,1,0.5000,1.2000,0,0,180.0*
1,1,0.6000,-0.2500,0.3000*
1,1,0.6000,0.2500,0.3000*
1,1,0.6000,0.2500,-0.3000*
1,1,0.6000,-0.2500,-0.3000*
%
%ADD30ROUNDEDRECTD30*%
%ADD31C,3.1000*%
%ADD32C,2.6416*%
%ADD33C,1.9000*%
G04:AMPARAMS|DCode=34|XSize=2.1mm|YSize=2.1mm|CornerRadius=0.55mm|HoleSize=0mm|Usage=FLASHONLY|Rotation=270.000|XOffset=0mm|YOffset=0mm|HoleType=Round|Shape=RoundedRectangle|*
%AMROUNDEDRECTD34*
21,1,2.1000,1.0000,0,0,270.0*
21,1,1.0000,2.1000,0,0,270.0*
1,1,1.1000,-0.5000,-0.5000*
1,1,1.1000,-0.5000,0.5000*
1,1,1.1000,0.5000,0.5000*
1,1,1.1000,0.5000,-0.5000*
%
%ADD34ROUNDEDRECTD34*%
%ADD35C,2.1000*%
%ADD36C,0.7000*%
G36*
X474600Y43210D02*
X474600Y43210D01*
X525400Y43210D01*
X526651Y43210D01*
X526750Y43200D01*
X529204Y42712D01*
X529300Y42683D01*
X529300Y42683D01*
X531611Y41726D01*
X531699Y41679D01*
X533779Y40289D01*
X533857Y40226D01*
X535626Y38457D01*
X535689Y38379D01*
X537079Y36299D01*
X537126Y36211D01*
X538083Y33900D01*
X538083Y33900D01*
X538112Y33804D01*
X538601Y31351D01*
X538610Y31251D01*
X538610Y30000D01*
Y30000D01*
Y28749D01*
X538601Y28650D01*
X538112Y26196D01*
X538083Y26100D01*
X537126Y23790D01*
X537126Y23789D01*
X537095Y23732D01*
X537079Y23701D01*
X537079Y23701D01*
X535689Y21621D01*
X535626Y21544D01*
X533857Y19775D01*
X533779Y19711D01*
X531700Y18322D01*
X531699Y18321D01*
X531652Y18296D01*
X531611Y18274D01*
X531611Y18274D01*
X529300Y17317D01*
X529204Y17288D01*
X526751Y16800D01*
X526651Y16790D01*
X525402D01*
X525400Y16790D01*
X474600Y16789D01*
D01*
X473349Y16789D01*
X473250Y16799D01*
X470796Y17287D01*
X470796D01*
X470774Y17294D01*
X470700Y17316D01*
X470700Y17316D01*
X468389Y18273D01*
X468301Y18320D01*
X468300Y18321D01*
X466220Y19710D01*
X466143Y19774D01*
X464374Y21543D01*
X464310Y21620D01*
X462921Y23700D01*
X462873Y23789D01*
X462873Y23789D01*
X461916Y26100D01*
X461916Y26100D01*
X461894Y26174D01*
X461887Y26196D01*
Y26196D01*
X461399Y28649D01*
X461389Y28749D01*
D01*
Y28749D01*
X461390Y30000D01*
X461389Y31251D01*
Y31251D01*
D01*
X461390Y31261D01*
X461399Y31350D01*
X461399Y31351D01*
X461887Y33804D01*
Y33804D01*
X461916Y33900D01*
X462873Y36211D01*
X462920Y36300D01*
X462921Y36300D01*
X464310Y38380D01*
X464310Y38380D01*
X464339Y38415D01*
X464374Y38457D01*
X464374Y38457D01*
X466143Y40226D01*
X466220Y40290D01*
X468301Y41680D01*
X468301Y41680D01*
X468342Y41701D01*
X468389Y41727D01*
X468389Y41727D01*
X470700Y42684D01*
X470796Y42713D01*
X470796D01*
X473250Y43201D01*
X473250Y43201D01*
X473340Y43210D01*
X473349Y43211D01*
D01*
X473349D01*
X474600Y43210D01*
D02*
G37*
G36*
X340000Y368610D02*
X341251D01*
X341350Y368601D01*
X343804Y368112D01*
X343900Y368083D01*
X346211Y367126D01*
X346211Y367126D01*
X346268Y367095D01*
X346299Y367079D01*
X346299Y367079D01*
X348379Y365689D01*
X348456Y365626D01*
X350225Y363857D01*
X350289Y363779D01*
X351678Y361700D01*
X351679Y361699D01*
X351704Y361652D01*
X351726Y361611D01*
X351726Y361611D01*
X352683Y359300D01*
X352712Y359204D01*
X353200Y356751D01*
X353210Y356651D01*
Y355402D01*
X353210Y355400D01*
X353211Y304600D01*
D01*
X353211Y303349D01*
X353201Y303250D01*
X352713Y300796D01*
Y300796D01*
X352706Y300774D01*
X352684Y300700D01*
X352684Y300700D01*
X351727Y298389D01*
X351679Y298300D01*
X351679Y298300D01*
X350290Y296220D01*
X350226Y296143D01*
X348457Y294374D01*
X348380Y294310D01*
X346300Y292921D01*
X346211Y292873D01*
X346211Y292873D01*
X343900Y291916D01*
X343900Y291916D01*
X343826Y291894D01*
X343804Y291887D01*
X343804D01*
X341350Y291399D01*
X341251Y291389D01*
D01*
X341251D01*
X340000Y291390D01*
X338749Y291389D01*
X338749D01*
D01*
X338739Y291390D01*
X338650Y291399D01*
X338649Y291399D01*
X336196Y291887D01*
X336196D01*
X336100Y291916D01*
X333789Y292873D01*
X333700Y292920D01*
X333700Y292921D01*
X331620Y294310D01*
X331620Y294310D01*
X331585Y294339D01*
X331543Y294374D01*
X331543Y294374D01*
X329774Y296143D01*
X329710Y296220D01*
X328321Y298300D01*
X328320Y298301D01*
X328298Y298342D01*
X328273Y298389D01*
X328273Y298389D01*
X327316Y300700D01*
X327287Y300796D01*
Y300796D01*
X326799Y303250D01*
X326799Y303250D01*
X326790Y303340D01*
X326789Y303349D01*
D01*
Y303349D01*
X326790Y304600D01*
D01*
X326790Y355400D01*
X326790Y356651D01*
X326800Y356750D01*
X327287Y359204D01*
X327317Y359300D01*
X327317Y359300D01*
X328274Y361611D01*
X328321Y361699D01*
X329711Y363779D01*
X329774Y363857D01*
X331543Y365626D01*
X331621Y365689D01*
X333701Y367079D01*
X333789Y367126D01*
X336100Y368083D01*
X336100Y368083D01*
X336196Y368112D01*
X338649Y368601D01*
X338749Y368610D01*
X340000Y368610D01*
D02*
G37*
G36*
X880000Y158610D02*
X881251D01*
X881350Y158601D01*
X883804Y158112D01*
X883900Y158083D01*
X886210Y157126D01*
X886211Y157126D01*
X886268Y157095D01*
X886299Y157079D01*
X886299Y157079D01*
X888379Y155689D01*
X888456Y155626D01*
X890225Y153857D01*
X890289Y153779D01*
X891678Y151700D01*
X891678Y151699D01*
X891704Y151652D01*
X891726Y151611D01*
X891726Y151611D01*
X892683Y149300D01*
X892712Y149204D01*
X893200Y146751D01*
X893210Y146651D01*
Y145402D01*
X893210Y145400D01*
X893211Y94600D01*
D01*
X893211Y93349D01*
X893201Y93250D01*
X892713Y90796D01*
Y90796D01*
X892706Y90774D01*
X892684Y90700D01*
X892684Y90700D01*
X891727Y88389D01*
X891680Y88301D01*
X891679Y88300D01*
X890290Y86220D01*
X890226Y86143D01*
X888457Y84374D01*
X888380Y84310D01*
X886300Y82921D01*
X886211Y82873D01*
X886211Y82873D01*
X883900Y81916D01*
X883900Y81916D01*
X883826Y81894D01*
X883804Y81887D01*
X883804D01*
X881350Y81399D01*
X881251Y81389D01*
D01*
X881251D01*
X880000Y81389D01*
X878749Y81389D01*
X878749D01*
D01*
X878739Y81390D01*
X878650Y81399D01*
X878649Y81399D01*
X876196Y81887D01*
X876196D01*
X876100Y81916D01*
X873789Y82873D01*
X873700Y82921D01*
X873700Y82921D01*
X871620Y84310D01*
X871620Y84310D01*
X871585Y84339D01*
X871543Y84374D01*
X871543Y84374D01*
X869774Y86143D01*
X869710Y86220D01*
X868320Y88301D01*
X868320Y88301D01*
X868298Y88342D01*
X868273Y88389D01*
X868273Y88389D01*
X867316Y90700D01*
X867287Y90796D01*
Y90796D01*
X866799Y93250D01*
X866799Y93250D01*
X866790Y93340D01*
X866789Y93349D01*
D01*
Y93349D01*
X866790Y94600D01*
D01*
X866790Y145400D01*
X866790Y146651D01*
X866799Y146750D01*
X867288Y149204D01*
X867317Y149300D01*
X867317Y149300D01*
X868274Y151611D01*
X868321Y151699D01*
X869711Y153779D01*
X869774Y153857D01*
X871543Y155626D01*
X871621Y155689D01*
X873701Y157079D01*
X873789Y157126D01*
X876100Y158083D01*
X876100Y158083D01*
X876196Y158112D01*
X878650Y158601D01*
X878749Y158610D01*
X880000Y158610D01*
D02*
G37*
G36*
Y293610D02*
X881251D01*
X881350Y293601D01*
X883804Y293112D01*
X883900Y293083D01*
X886210Y292126D01*
X886211Y292126D01*
X886268Y292095D01*
X886299Y292079D01*
X886299Y292079D01*
X888379Y290689D01*
X888456Y290626D01*
X890225Y288857D01*
X890289Y288779D01*
X891678Y286700D01*
X891678Y286700D01*
X891704Y286652D01*
X891726Y286611D01*
X891726Y286611D01*
X892683Y284300D01*
X892712Y284204D01*
X893200Y281751D01*
X893210Y281651D01*
Y280402D01*
X893210Y280400D01*
X893211Y229600D01*
D01*
X893211Y228349D01*
X893201Y228250D01*
X892713Y225796D01*
Y225796D01*
X892706Y225774D01*
X892684Y225700D01*
X892684Y225700D01*
X891727Y223389D01*
X891680Y223300D01*
X891679Y223300D01*
X890290Y221220D01*
X890226Y221143D01*
X888457Y219374D01*
X888380Y219310D01*
X886300Y217921D01*
X886211Y217873D01*
X886211Y217873D01*
X883900Y216916D01*
X883900Y216916D01*
X883826Y216894D01*
X883804Y216887D01*
X883804D01*
X881350Y216399D01*
X881251Y216389D01*
D01*
X881251D01*
X880000Y216390D01*
X878749Y216389D01*
X878749D01*
D01*
X878739Y216390D01*
X878650Y216399D01*
X878649Y216399D01*
X876196Y216887D01*
X876196D01*
X876100Y216916D01*
X873789Y217873D01*
X873700Y217920D01*
X873700Y217921D01*
X871620Y219310D01*
X871620Y219310D01*
X871585Y219339D01*
X871543Y219374D01*
X871543Y219374D01*
X869774Y221143D01*
X869710Y221220D01*
X868320Y223300D01*
X868320Y223301D01*
X868298Y223342D01*
X868273Y223389D01*
X868273Y223389D01*
X867316Y225700D01*
X867287Y225796D01*
Y225796D01*
X866799Y228250D01*
X866799Y228250D01*
X866790Y228340D01*
X866789Y228349D01*
D01*
Y228349D01*
X866790Y229600D01*
D01*
X866790Y280400D01*
X866790Y281651D01*
X866799Y281750D01*
X867288Y284204D01*
X867317Y284300D01*
X867317Y284300D01*
X868274Y286611D01*
X868321Y286699D01*
X869711Y288779D01*
X869774Y288857D01*
X871543Y290626D01*
X871621Y290689D01*
X873701Y292079D01*
X873789Y292126D01*
X876100Y293083D01*
X876100Y293083D01*
X876196Y293113D01*
X878650Y293601D01*
X878749Y293610D01*
X880000Y293610D01*
D02*
G37*
G36*
X660000Y363610D02*
X661251D01*
X661350Y363601D01*
X663804Y363112D01*
X663900Y363083D01*
X666210Y362126D01*
X666211Y362126D01*
X666268Y362095D01*
X666299Y362079D01*
X666299Y362079D01*
X668379Y360689D01*
X668456Y360626D01*
X670225Y358857D01*
X670289Y358779D01*
X671678Y356700D01*
X671678Y356699D01*
X671704Y356652D01*
X671726Y356611D01*
X671726Y356611D01*
X672683Y354300D01*
X672712Y354204D01*
X673200Y351751D01*
X673210Y351651D01*
Y350402D01*
X673210Y350400D01*
X673211Y299600D01*
D01*
X673211Y298349D01*
X673201Y298250D01*
X672713Y295796D01*
Y295796D01*
X672706Y295774D01*
X672684Y295700D01*
X672684Y295700D01*
X671727Y293389D01*
X671680Y293300D01*
X671679Y293300D01*
X670290Y291220D01*
X670226Y291143D01*
X668457Y289374D01*
X668380Y289310D01*
X666300Y287921D01*
X666211Y287873D01*
X666211Y287873D01*
X663900Y286916D01*
X663900Y286916D01*
X663826Y286894D01*
X663804Y286887D01*
X663804D01*
X661350Y286399D01*
X661251Y286389D01*
D01*
X661251D01*
X660000Y286390D01*
X658749Y286389D01*
X658749D01*
D01*
X658739Y286390D01*
X658650Y286399D01*
X658649Y286399D01*
X656196Y286887D01*
X656196D01*
X656100Y286916D01*
X653789Y287873D01*
X653700Y287920D01*
X653700Y287921D01*
X651620Y289310D01*
X651620Y289310D01*
X651585Y289339D01*
X651543Y289374D01*
X651543Y289374D01*
X649774Y291143D01*
X649710Y291220D01*
X648320Y293300D01*
X648320Y293301D01*
X648298Y293342D01*
X648273Y293389D01*
X648273Y293389D01*
X647316Y295700D01*
X647287Y295796D01*
Y295796D01*
X646799Y298250D01*
X646799Y298250D01*
X646790Y298340D01*
X646789Y298349D01*
D01*
Y298349D01*
X646790Y299600D01*
D01*
X646790Y350400D01*
X646790Y351651D01*
X646799Y351750D01*
X647288Y354204D01*
X647317Y354300D01*
X647317Y354300D01*
X648274Y356611D01*
X648321Y356699D01*
X649711Y358779D01*
X649774Y358857D01*
X651543Y360626D01*
X651621Y360689D01*
X653701Y362079D01*
X653789Y362126D01*
X656100Y363083D01*
X656100Y363083D01*
X656196Y363112D01*
X658650Y363601D01*
X658749Y363610D01*
X660000Y363610D01*
D02*
G37*
D13*
X0Y0D02*
X920000D01*
X0Y380000D02*
X920000D01*
Y0D02*
Y380000D01*
X0Y0D02*
Y380000D01*
D17*
X683770Y41900D02*
D03*
X709170D02*
D03*
X810770D02*
D03*
X836170D02*
D03*
Y118100D02*
D03*
X810770D02*
D03*
X709170D02*
D03*
X683770D02*
D03*
X653770Y181900D02*
D03*
X679170D02*
D03*
X780770D02*
D03*
X806170D02*
D03*
Y258100D02*
D03*
X780770D02*
D03*
X679170D02*
D03*
X653770D02*
D03*
X556230Y338100D02*
D03*
X530830D02*
D03*
X429230D02*
D03*
X403830D02*
D03*
Y261900D02*
D03*
X429230D02*
D03*
X530830D02*
D03*
X556230D02*
D03*
D18*
X445823Y69270D02*
D03*
Y94670D02*
D03*
Y196270D02*
D03*
Y221670D02*
D03*
X369623D02*
D03*
Y196270D02*
D03*
Y94670D02*
D03*
Y69270D02*
D03*
D19*
X626874Y345748D02*
D03*
Y360448D02*
D03*
X370000Y282650D02*
D03*
Y297350D02*
D03*
D20*
X104500Y223989D02*
D03*
X87500D02*
D03*
X87666Y274554D02*
D03*
X104666D02*
D03*
X127666D02*
D03*
X144666D02*
D03*
X87666Y198666D02*
D03*
X104666D02*
D03*
X87500Y248902D02*
D03*
X104500D02*
D03*
X127500D02*
D03*
X144500D02*
D03*
X127500Y223989D02*
D03*
X144500D02*
D03*
D21*
X239999Y106000D02*
D03*
Y154000D02*
D03*
D22*
X177250Y234618D02*
D03*
Y215618D02*
D03*
X199250Y225117D02*
D03*
X246000Y190000D02*
D03*
X224000Y180500D02*
D03*
Y199500D02*
D03*
X199250Y285117D02*
D03*
X177250Y275618D02*
D03*
Y294618D02*
D03*
X246500Y250117D02*
D03*
X224500Y240618D02*
D03*
Y259618D02*
D03*
D23*
X339000Y164999D02*
D03*
X291000D02*
D03*
X339000Y249999D02*
D03*
X291000D02*
D03*
X249000Y324999D02*
D03*
X201000D02*
D03*
D24*
X620000Y205500D02*
D03*
Y224500D02*
D03*
X595000Y274500D02*
D03*
Y255500D02*
D03*
X495000Y120500D02*
D03*
Y139500D02*
D03*
D25*
X120000Y86000D02*
D03*
Y114000D02*
D03*
D26*
X649000Y100000D02*
D03*
X621000D02*
D03*
D27*
X631884Y31486D02*
D03*
X612884D02*
D03*
D28*
X769550Y150000D02*
D03*
X750450D02*
D03*
X769550Y310000D02*
D03*
X750450D02*
D03*
D29*
X627350D02*
D03*
X612650D02*
D03*
D30*
X125000Y198500D02*
D03*
Y181500D02*
D03*
D31*
X40000Y340000D02*
D03*
X880000D02*
D03*
Y40000D02*
D03*
X40000D02*
D03*
D32*
X880000Y280400D02*
D03*
Y229600D02*
D03*
X340000Y304600D02*
D03*
Y355400D02*
D03*
X474600Y30000D02*
D03*
X525400D02*
D03*
X660000Y299600D02*
D03*
Y350400D02*
D03*
X880000Y94600D02*
D03*
Y145400D02*
D03*
D33*
X45000Y113000D02*
D03*
Y87000D02*
D03*
D34*
X25000Y273100D02*
D03*
D35*
Y196900D02*
D03*
Y222300D02*
D03*
Y247700D02*
D03*
D36*
X410000Y210000D02*
D03*
X215000Y160000D02*
D03*
X166000Y136000D02*
D03*
X173500Y121000D02*
D03*
X166000Y106000D02*
D03*
X151000Y136000D02*
D03*
X158500Y121000D02*
D03*
X151000Y106000D02*
D03*
X136000Y136000D02*
D03*
X143500Y121000D02*
D03*
X121000Y136000D02*
D03*
X106000D02*
D03*
X91000D02*
D03*
X98500Y121000D02*
D03*
X91000Y106000D02*
D03*
X76000Y136000D02*
D03*
X83500Y121000D02*
D03*
X76000Y106000D02*
D03*
X61000Y136000D02*
D03*
X68500Y121000D02*
D03*
X61000Y106000D02*
D03*
X46000Y136000D02*
D03*
X31000D02*
D03*
Y106000D02*
D03*
X670000Y100000D02*
D03*
X540933Y221829D02*
D03*
X265000Y155000D02*
D03*
X290098Y201570D02*
D03*
X290000Y224005D02*
D03*
X270000Y105000D02*
D03*
X613965Y148965D02*
D03*
X630000Y50000D02*
D03*
X545000Y69800D02*
D03*
X605000Y125000D02*
D03*
X325000Y270000D02*
D03*
X260000Y75000D02*
D03*
X340000Y130000D02*
D03*
X620000Y185000D02*
D03*
X100000Y310000D02*
D03*
X470000Y110000D02*
D03*
X580000Y290000D02*
D03*
X280000Y325000D02*
D03*
X424200Y304741D02*
D03*
M02*
