M48
;Layer_Color=9474304
;FILE_FORMAT=4:4
METRIC,LZ
;TYPE=PLATED
T01F00S00C0.3000
T02F00S00C1.0000
T03F00S00C1.2000
T04F00S00C1.7780
%
T01
X00031Y00106
X00061
X00076
X00091
X000985Y00121
X000835
X000685
X00061Y00136
X00076
X00091
X00106
X00121
X00136
X00046
X00031
X00151
X00166
X001735Y00121
X001585
X001435
X00151Y00106
X00166
X0027Y00105
X0026Y00075
X0034Y0013
X0047Y0011
X00545Y000698
X0063Y0005
X0067Y001
X00605Y00125
X00613965Y00148965
X0062Y00185
X00540933Y00221829
X0058Y0029
X004242Y00304741
X0041Y0021
X00290098Y0020157
X0029Y00224005
X00325Y0027
X0028Y00325
X00265Y00155
X00215Y0016
X001Y0031
T02
X00045Y00087
Y00113
T03
X00025Y001969
Y002223
Y002477
Y002731
T04
X004746Y0003
X005254
X0088Y000946
Y001454
Y002296
Y002804
X0066Y002996
Y003504
X0034Y003554
Y003046
M30
